Coordinates
version=1
nRows=11
nColumns=63
inDegrees=yes

Units are S.I. units (second, meters, Newtons, ...)
If the header above contains a line with 'inDegrees', this indicates whether rotational values are in degrees (yes) or radians (no).

endheader
time	pelvis_tilt	pelvis_list	pelvis_rotation	pelvis_tx	pelvis_ty	pelvis_tz	hip_flexion_r	hip_adduction_r	hip_rotation_r	knee_angle_r	knee_angle_r_beta	ankle_angle_r	subtalar_angle_r	mtp_angle_r	hip_flexion_l	hip_adduction_l	hip_rotation_l	knee_angle_l	knee_angle_l_beta	ankle_angle_l	subtalar_angle_l	mtp_angle_l	L5_S1_Flex_Ext	L5_S1_Lat_Bending	L5_S1_axial_rotation	L4_L5_Flex_Ext	L4_L5_Lat_Bending	L4_L5_axial_rotation	L3_L4_Flex_Ext	L3_L4_Lat_Bending	L3_L4_axial_rotation	L2_L3_Flex_Ext	L2_L3_Lat_Bending	L2_L3_axial_rotation	L1_L2_Flex_Ext	L1_L2_Lat_Bending	L1_L2_axial_rotation	L1_T12_Flex_Ext	L1_T12_Lat_Bending	L1_T12_axial_rotation	Abs_r3	Abs_r2	Abs_r1	Abs_t1	Abs_t2	neck_flexion	neck_bending	neck_rotation	arm_flex_r	arm_add_r	arm_rot_r	elbow_flex_r	pro_sup_r	wrist_flex_r	wrist_dev_r	arm_flex_l	arm_add_l	arm_rot_l	elbow_flex_l	pro_sup_l	wrist_flex_l	wrist_dev_l
      7.82500000	    -52.91706874	     -5.51030253	      2.03510311	     -0.25852061	      1.01069808	      0.01317158	    112.54756696	     -6.43203752	     -0.10236346	     77.44488777	      1.35166828	     13.48098452	      0.32816057	      0.00000000	     99.92472584	     -3.01039234	      9.19274421	     94.64123274	      1.65180112	      6.46620888	      0.32002529	      0.00000000	     -0.07980423	      0.66509788	     -0.60605137	     -0.14820444	      0.88458019	     -0.64392958	     -0.13111037	      1.61711900	     -0.64392958	     -0.09120825	      1.61711900	     -0.53029495	     -0.07410621	      1.35626761	     -0.49241674	     -0.04560014	      1.03023662	     -0.45453853	     -0.57003363	      7.52372029	     -3.37067590	      0.00000000	      0.00000000	      0.00000000	      0.00000000	      0.00000000	     74.65446089	     -9.90015310	     16.08631077	     29.48543036	     59.75822358	      0.00000000	      5.00000014	     70.58674700	    -12.54502697	     10.62408030	     34.67422817	     62.47004224	      0.00000000	      5.00000014
      7.83300000	    -52.94170682	     -5.62074708	      2.50734438	     -0.25853076	      1.01077781	      0.01271980	    110.84986380	     -6.98168575	     -0.94050461	     74.62115622	      1.30238487	     12.68378231	     -0.59846832	      0.00000000	    101.18091699	     -2.32535808	      9.75706441	     97.04514096	      1.69375723	      7.26838183	      0.64461006	      0.00000000	     -0.07877583	      0.66435667	     -0.69030358	     -0.14629460	      0.88359437	     -0.73344756	     -0.12942082	      1.61531681	     -0.73344756	     -0.09003290	      1.61531681	     -0.60401564	     -0.07315124	      1.35475612	     -0.56087166	     -0.04501251	      1.02908848	     -0.51772769	     -0.56268791	      7.51533552	     -3.83926144	      0.00000000	      0.00000000	      0.00000000	      0.00000000	      0.00000000	     74.62241189	     -9.92833970	     15.81308087	     29.37026369	     59.73300256	      0.00000000	      5.00000014	     70.63820792	    -12.60591117	     10.96102146	     34.78234629	     62.56469431	      0.00000000	      5.00000014
      7.84200000	    -52.96145500	     -5.54063001	      3.08252223	     -0.25847251	      1.01091635	      0.01241403	    109.18319852	     -7.54284618	     -1.57201685	     71.88652237	      1.25465650	     11.96954127	     -1.24994400	      0.00000000	    102.42066538	     -1.63926029	     10.00123232	     99.26436322	      1.73248997	      8.09759798	      0.74719812	      0.00000000	     -0.07965387	      0.63482330	     -0.78971276	     -0.14792520	      0.84431498	     -0.83906980	     -0.13086334	      1.54350936	     -0.83906980	     -0.09103641	      1.54350936	     -0.69099866	     -0.07396658	      1.29453166	     -0.64164161	     -0.04551422	      0.98334129	     -0.59228457	     -0.56895963	      7.18124809	     -4.39214543	      0.00000000	      0.00000000	      0.00000000	      0.00000000	      0.00000000	     74.51945837	     -9.95040326	     15.62387298	     29.34302955	     59.66737260	      0.00000000	      5.00000014	     70.75242843	    -12.63612963	     11.24080268	     34.89324481	     62.57562743	      0.00000000	      5.00000014
      7.85000000	    -52.95691404	     -5.70627735	      3.45559993	     -0.25817138	      1.01092262	      0.01228236	    107.43881544	     -7.96661889	     -2.67223139	     69.23711462	      1.20841561	     11.01056409	     -2.43779691	      0.00000000	    103.74830534	     -1.13028401	     10.53661966	    101.50450824	      1.77158787	      9.10977314	      0.95861155	      0.00000000	     -0.07877117	      0.63872214	     -0.85126869	     -0.14628594	      0.84950045	     -0.90447298	     -0.12941315	      1.55298902	     -0.90447298	     -0.09002757	      1.55298902	     -0.74486010	     -0.07314691	      1.30248220	     -0.69165581	     -0.04500985	      0.98938060	     -0.63845151	     -0.56265457	      7.22535264	     -4.73450105	      0.00000000	      0.00000000	      0.00000000	      0.00000000	      0.00000000	     74.43503389	     -9.96668969	     15.29859096	     29.31351720	     59.59777583	      0.00000000	      5.00000014	     70.78948147	    -12.72050258	     11.83125545	     34.98538124	     62.66604351	      0.00000000	      5.00000014
      7.85800000	    -52.94244879	     -5.37512211	      4.12620947	     -0.25779221	      1.01099014	      0.01213169	    105.83019701	     -8.53489111	     -3.00227048	     66.78775127	      1.16566616	     10.38937954	     -2.55687011	      0.00000000	    104.97573568	     -0.47726734	     10.35558996	    103.46231070	      1.80575797	      9.83224326	      0.77073454	      0.00000000	     -0.07913108	      0.57325134	     -0.97021575	     -0.14695433	      0.76242428	     -1.03085423	     -0.13000446	      1.39380330	     -1.03085423	     -0.09043892	      1.39380330	     -0.84893878	     -0.07348112	      1.16897413	     -0.78830030	     -0.04521550	      0.88796632	     -0.72766181	     -0.56522541	      6.48473378	     -5.39604893	      0.00000000	      0.00000000	      0.00000000	      0.00000000	      0.00000000	     74.19261053	     -9.97545175	     15.23961724	     29.37606637	     59.55381132	      0.00000000	      5.00000014	     70.91541653	    -12.75937003	     11.98746475	     35.03412983	     62.65256489	      0.00000000	      5.00000014
      7.86700000	    -52.90025790	     -5.57777200	      4.32763510	     -0.25719847	      1.01085577	      0.01224266	    104.01620839	     -8.73252784	     -4.15039635	     64.23328954	      1.12108239	      9.45598632	     -3.70577820	      0.00000000	    106.36918962	     -0.23746670	     10.71638527	    105.53685065	      1.84196553	     10.64621765	      0.38105773	      0.00000000	     -0.07802110	      0.58092213	     -0.98717672	     -0.14489298	      0.77262643	     -1.04887526	     -0.12818086	      1.41245406	     -1.04887526	     -0.08917031	      1.41245406	     -0.86377963	     -0.07245039	      1.18461640	     -0.80208108	     -0.04458125	      0.89984838	     -0.74038254	     -0.55729689	      6.57150729	     -5.49038074	      0.00000000	      0.00000000	      0.00000000	      0.00000000	      0.00000000	     74.04308724	    -10.06274315	     14.82034938	     29.44656144	     59.47692148	      0.00000000	      5.00000014	     71.01965499	    -12.80650832	     12.97252923	     35.00447114	     62.82056464	      0.00000000	      5.00000014
      7.87500000	    -52.83369438	     -5.23983415	      4.89504857	     -0.25649055	      1.01068399	      0.01222066	    102.37674780	     -9.15534936	     -4.37149205	     61.97791582	      1.08171869	      8.92800875	     -3.65775228	      0.00000000	    107.63590849	      0.21021448	     10.35369842	    107.34821982	      1.87357988	     11.22314953	      0.08932286	      0.00000000	     -0.07777147	      0.51456585	     -1.08588143	     -0.14442940	      0.68437259	     -1.15374902	     -0.12777075	      1.25111542	     -1.15374902	     -0.08888502	      1.25111542	     -0.95014625	     -0.07221859	      1.04930269	     -0.88227866	     -0.04443862	      0.79706251	     -0.81441107	     -0.55551385	      5.82087185	     -6.03934673	      0.00000000	      0.00000000	      0.00000000	      0.00000000	      0.00000000	     73.76984097	    -10.06960312	     14.77536908	     29.50565165	     59.44239840	      0.00000000	      5.00000014	     71.12573007	    -12.80192497	     13.13341679	     34.97342680	     62.81643740	      0.00000000	      5.00000014
      7.88300000	    -52.73957445	     -5.25662420	      4.97875234	     -0.25561713	      1.01033176	      0.01251446	    100.56485435	     -9.13142909	     -5.07052441	     59.60719162	      1.04034175	      8.23924190	     -3.97945821	      0.00000000	    109.05667914	      0.26242038	     10.30093873	    109.25219524	      1.90681052	     11.37652458	     -0.87318974	      0.00000000	     -0.07607473	      0.49686745	     -1.07715706	     -0.14127839	      0.66083371	     -1.14447937	     -0.12498318	      1.20808353	     -1.14447937	     -0.08694581	      1.20808353	     -0.94251243	     -0.07064300	      1.01321211	     -0.87519011	     -0.04346910	      0.76964769	     -0.80786779	     -0.54339422	      5.62066402	     -5.99082440	      0.00000000	      0.00000000	      0.00000000	      0.00000000	      0.00000000	     73.50083450	    -10.19282179	     14.35298788	     29.59790314	     59.36953090	      0.00000000	      5.00000014	     71.27777202	    -12.74228268	     14.05176708	     34.73631140	     62.98228776	      0.00000000	      5.00000014
      7.89200000	    -52.63194018	     -5.02740104	      5.17390908	     -0.25476349	      1.00994382	      0.01275575	     98.83277670	     -9.14177957	     -5.27036599	     57.41168908	      1.00202300	      7.72535050	     -3.88011794	      0.00000000	    110.45480528	      0.33878015	      9.93426599	    111.00676524	      1.93743355	     11.35193875	     -1.40240489	      0.00000000	     -0.07647422	      0.44722871	     -1.09533349	     -0.14202027	      0.59481419	     -1.16379184	     -0.12563949	      1.08739189	     -1.16379184	     -0.08740239	      1.08739189	     -0.95841681	     -0.07101396	      0.91198879	     -0.88995846	     -0.04369737	      0.69275728	     -0.82150012	     -0.54624770	      5.05914066	     -6.09191628	      0.00000000	      0.00000000	      0.00000000	      0.00000000	      0.00000000	     73.25679472	    -10.25029215	     14.09452903	     29.59329288	     59.31920879	      0.00000000	      5.00000014	     71.42621123	    -12.64594819	     14.50100374	     34.54160428	     63.05736275	      0.00000000	      5.00000014
      7.90000000	    -52.51589170	     -4.73427443	      5.54375754	     -0.25394086	      1.00960255	      0.01276262	     97.14394651	     -9.31458003	     -5.24570053	     55.36458974	      0.96629438	      7.07754629	     -3.62380072	      0.00000000	    111.83996621	      0.56808837	      9.40884608	    112.58610210	      1.96499817	     11.26888033	     -1.58355844	      0.00000000	     -0.07642367	      0.38859740	     -1.14866373	     -0.14192640	      0.51683454	     -1.22045522	     -0.12555645	      0.94483572	     -1.22045522	     -0.08734461	      0.94483572	     -1.00508077	     -0.07096702	      0.79242782	     -0.93328928	     -0.04366849	      0.60193737	     -0.86149780	     -0.54588664	      4.39589151	     -6.38852309	      0.00000000	      0.00000000	      0.00000000	      0.00000000	      0.00000000	     72.99568946	    -10.29879856	     13.95433977	     29.49963039	     59.28163912	      0.00000000	      5.00000014	     71.52702719	    -12.52635672	     14.70696479	     34.42255581	     63.07539492	      0.00000000	      5.00000014
      7.90800000	    -52.36122008	     -4.56269283	      5.39537008	     -0.25297252	      1.00902532	      0.01324315	     95.39371715	     -8.94184533	     -5.25701552	     53.39901790	      0.93198868	      6.53568594	     -3.30071047	      0.00000000	    113.34266452	      0.37839357	      9.15169701	    114.26622284	      1.99432181	     10.52132284	     -2.13509934	      0.00000000	     -0.07756746	      0.34841627	     -1.09484800	     -0.14405053	      0.46339364	     -1.16327600	     -0.12743558	      0.84713932	     -1.16327600	     -0.08865185	      0.84713932	     -0.95799200	     -0.07202914	      0.71049046	     -0.88956400	     -0.04432205	      0.53969680	     -0.82113600	     -0.55405660	      3.94135453	     -6.08921612	      0.00000000	      0.00000000	      0.00000000	      0.00000000	      0.00000000	     72.77501684	    -10.39394728	     13.47830351	     29.35725297	     59.19684767	      0.00000000	      5.00000014	     71.64978691	    -12.31895909	     15.19042659	     34.08634166	     63.16371432	      0.00000000	      5.00000014
